<svg width="38" height="38" viewBox="0 0 38 38" fill="none" xmlns="http://www.w3.org/2000/svg">
<rect width="38" height="38" rx="8" fill="#222222"/>
<path d="M9 19.5C9 16.46 11.46 14 14.5 14H25C27.21 14 29 15.79 29 18C29 20.21 27.21 22 25 22H16.5C15.12 22 14 20.88 14 19.5C14 18.12 15.12 17 16.5 17H24V19H16.41C15.86 19 15.86 20 16.41 20H25C26.1 20 27 19.1 27 18C27 16.9 26.1 16 25 16H14.5C12.57 16 11 17.57 11 19.5C11 21.43 12.57 23 14.5 23H24V25H14.5C11.46 25 9 22.54 9 19.5Z" fill="#0596FF"/>
</svg>
