<svg width="38" height="38" viewBox="0 0 38 38" fill="none" xmlns="http://www.w3.org/2000/svg">
<rect width="38" height="38" rx="8" fill="#222222"/>
<path d="M19 19.75C20.63 19.75 22.07 20.14 23.24 20.65C24.32 21.13 25 22.21 25 23.38V25H13V23.39C13 22.21 13.68 21.13 14.76 20.66C15.93 20.14 17.37 19.75 19 19.75ZM11 20C12.1 20 13 19.1 13 18C13 16.9 12.1 16 11 16C9.9 16 9 16.9 9 18C9 19.1 9.9 20 11 20ZM12.13 21.1C11.76 21.04 11.39 21 11 21C10.01 21 9.07 21.21 8.22 21.58C7.48 21.9 7 22.62 7 23.43V25H11.5V23.39C11.5 22.56 11.73 21.78 12.13 21.1ZM27 20C28.1 20 29 19.1 29 18C29 16.9 28.1 16 27 16C25.9 16 25 16.9 25 18C25 19.1 25.9 20 27 20ZM31 23.43C31 22.62 30.52 21.9 29.78 21.58C28.93 21.21 27.99 21 27 21C26.61 21 26.24 21.04 25.87 21.1C26.27 21.78 26.5 22.56 26.5 23.39V25H31V23.43ZM19 13C20.66 13 22 14.34 22 16C22 17.66 20.66 19 19 19C17.34 19 16 17.66 16 16C16 14.34 17.34 13 19 13Z" fill="#0596FF"/>
</svg>
