<svg width="88" height="88" viewBox="0 0 88 88" fill="none" xmlns="http://www.w3.org/2000/svg">
<path d="M40.3333 25.6666H47.6666V33H40.3333V25.6666ZM40.3333 40.3333H47.6666V62.3333H40.3333V40.3333ZM43.9999 7.33331C23.7599 7.33331 7.33325 23.76 7.33325 44C7.33325 64.24 23.7599 80.6666 43.9999 80.6666C64.2399 80.6666 80.6666 64.24 80.6666 44C80.6666 23.76 64.2399 7.33331 43.9999 7.33331ZM43.9999 73.3333C27.8299 73.3333 14.6666 60.17 14.6666 44C14.6666 27.83 27.8299 14.6666 43.9999 14.6666C60.1699 14.6666 73.3333 27.83 73.3333 44C73.3333 60.17 60.1699 73.3333 43.9999 73.3333Z" fill="url(#paint0_linear_632_442)"/>
<defs>
<linearGradient id="paint0_linear_632_442" x1="79.8518" y1="13.9333" x2="15.826" y2="86.6899" gradientUnits="userSpaceOnUse">
<stop stop-color="#DA72FF"/>
<stop offset="1" stop-color="#9EBCFE"/>
</linearGradient>
</defs>
</svg>
