<svg width="88" height="88" viewBox="0 0 88 88" fill="none" xmlns="http://www.w3.org/2000/svg">
<path d="M49.5001 2.45673C49.5001 2.45673 52.2134 12.1734 52.2134 20.0567C52.2134 27.6101 47.2634 33.7334 39.7101 33.7334C32.1201 33.7334 26.4001 27.6101 26.4001 20.0567L26.5101 18.7367C19.1034 27.5367 14.6667 38.9401 14.6667 51.3334C14.6667 67.5401 27.7934 80.6667 44.0001 80.6667C60.2067 80.6667 73.3334 67.5401 73.3334 51.3334C73.3334 31.5701 63.8367 13.9334 49.5001 2.45673ZM42.9367 69.6667C36.4101 69.6667 31.1301 64.5334 31.1301 58.1534C31.1301 52.2134 34.9801 48.0334 41.4334 46.7134C47.9234 45.3934 54.6334 42.2767 58.3734 37.2534C59.8034 41.9834 60.5367 46.9701 60.5367 52.0667C60.5367 61.7834 52.6534 69.6667 42.9367 69.6667Z" fill="url(#paint0_linear_632_448)"/>
<defs>
<linearGradient id="paint0_linear_632_448" x1="66.4998" y1="9.5" x2="27.9998" y2="70" gradientUnits="userSpaceOnUse">
<stop stop-color="#DB72FF"/>
<stop offset="1" stop-color="#9EBBFE"/>
</linearGradient>
</defs>
</svg>
